<?xml version="1.0" standalone="no"?>
<!DOCTYPE svg PUBLIC "-//W3C//DTD SVG 20010904//EN"
 "http://www.w3.org/TR/2001/REC-SVG-20010904/DTD/svg10.dtd">
<svg version="1.0" xmlns="http://www.w3.org/2000/svg"
 width="700.000000pt" height="700.000000pt" viewBox="0 0 700.000000 700.000000"
 preserveAspectRatio="xMidYMid meet">
<metadata>
Created by potrace 1.11, written by Peter Selinger 2001-2013
</metadata>
<g transform="translate(0.000000,700.000000) scale(0.100000,-0.100000)"
fill="#000000" stroke="none">
<path d="M3413 6895 c-38 -16 -45 -37 -33 -90 14 -58 12 -128 -4 -167 -45
-107 -239 -215 -536 -299 -25 -7 -50 -13 -56 -15 -6 -1 -93 -23 -195 -48 -431
-110 -784 -254 -1089 -447 -47 -30 -87 -56 -90 -59 -3 -3 -27 -21 -55 -40 -27
-19 -57 -40 -65 -47 -392 -312 -623 -648 -724 -1048 l-23 -90 -60 -35 c-267
-155 -417 -404 -416 -690 0 -66 9 -145 17 -159 3 -4 7 -18 10 -32 25 -137 155
-321 303 -431 100 -73 264 -143 374 -157 7 -1 25 -44 109 -261 39 -102 116
-297 170 -435 126 -321 240 -610 374 -955 59 -151 112 -284 117 -295 4 -11 42
-105 83 -210 40 -104 94 -242 119 -305 25 -63 75 -191 112 -285 36 -93 70
-173 73 -177 7 -7 1054 -17 2952 -28 l325 -2 17 33 c13 28 91 234 154 409 7
19 83 224 169 455 87 231 163 438 170 460 7 22 24 69 38 105 14 36 62 164 107
285 44 121 85 229 90 240 4 11 36 97 70 190 35 94 74 199 87 235 13 36 32 88
42 115 38 108 182 489 190 503 4 8 37 26 72 40 451 181 648 666 438 1078 -55
107 -142 208 -248 286 -31 22 -40 37 -50 82 -23 103 -60 208 -118 336 -31 67
-134 243 -153 260 -3 3 -17 21 -30 40 -65 96 -229 269 -350 371 -368 311 -826
531 -1375 663 l-129 31 -12 55 c-46 220 -266 426 -536 504 -156 46 -367 61
-435 31z"/>
</g>
</svg>
